<mxfile host="app.diagrams.net" modified="2022-12-28T09:42:03.505Z" agent="5.0 (Macintosh; Intel Mac OS X 10_15_7) AppleWebKit/605.1.15 (KHTML, like Gecko) Version/16.1 Safari/605.1.15" version="20.7.4" etag="kxADOQmH_ND0FfUNMZlw" type="github">
  <diagram id="nGF-dSJa1TNR4d5VjQKV" name="페이지-1">
    <mxGraphModel dx="1229" dy="903" grid="1" gridSize="10" guides="1" tooltips="1" connect="1" arrows="1" fold="1" page="1" pageScale="1" pageWidth="827" pageHeight="1169" math="0" shadow="0">
      <root>
        <mxCell id="0" />
        <mxCell id="1" parent="0" />
        <mxCell id="i52UNPJh6CE3m6PQyGR2-56" value="" style="group;movable=0;resizable=0;rotatable=0;deletable=0;editable=0;connectable=0;" vertex="1" connectable="0" parent="1">
          <mxGeometry x="150" y="100" width="211" height="160" as="geometry" />
        </mxCell>
        <mxCell id="i52UNPJh6CE3m6PQyGR2-96" style="edgeStyle=orthogonalEdgeStyle;rounded=0;orthogonalLoop=1;jettySize=auto;html=1;exitX=1;exitY=0.5;exitDx=0;exitDy=0;entryX=0;entryY=0.9;entryDx=0;entryDy=0;entryPerimeter=0;" edge="1" parent="1" source="i52UNPJh6CE3m6PQyGR2-54" target="i52UNPJh6CE3m6PQyGR2-62">
          <mxGeometry relative="1" as="geometry" />
        </mxCell>
        <mxCell id="i52UNPJh6CE3m6PQyGR2-54" value="API (external / internal)" style="swimlane;strokeWidth=0.5;movable=1;resizable=1;rotatable=1;deletable=1;editable=1;connectable=1;" vertex="1" parent="1">
          <mxGeometry x="37" y="281" width="140" height="120" as="geometry">
            <mxRectangle x="-30" y="140" width="110" height="30" as="alternateBounds" />
          </mxGeometry>
        </mxCell>
        <mxCell id="i52UNPJh6CE3m6PQyGR2-14" value="active&lt;br&gt;" style="sketch=0;aspect=fixed;pointerEvents=1;shadow=0;dashed=0;html=1;strokeColor=none;labelPosition=center;verticalLabelPosition=bottom;verticalAlign=top;align=center;fillColor=#00188D;shape=mxgraph.mscae.enterprise.server_generic;strokeWidth=0.5;" vertex="1" parent="i52UNPJh6CE3m6PQyGR2-54">
          <mxGeometry x="30" y="41" width="24" height="50" as="geometry" />
        </mxCell>
        <mxCell id="i52UNPJh6CE3m6PQyGR2-57" value="active&lt;br&gt;" style="sketch=0;aspect=fixed;pointerEvents=1;shadow=0;dashed=0;html=1;strokeColor=none;labelPosition=center;verticalLabelPosition=bottom;verticalAlign=top;align=center;fillColor=#00188D;shape=mxgraph.mscae.enterprise.server_generic;strokeWidth=0.5;" vertex="1" parent="i52UNPJh6CE3m6PQyGR2-54">
          <mxGeometry x="85" y="42" width="24" height="50" as="geometry" />
        </mxCell>
        <mxCell id="i52UNPJh6CE3m6PQyGR2-66" value="" style="group" vertex="1" connectable="0" parent="1">
          <mxGeometry x="253" y="339" width="140" height="181" as="geometry" />
        </mxCell>
        <mxCell id="i52UNPJh6CE3m6PQyGR2-55" value="DB (maria)" style="swimlane;whiteSpace=wrap;html=1;strokeWidth=0.5;movable=0;resizable=0;rotatable=0;deletable=0;editable=0;connectable=0;" vertex="1" parent="i52UNPJh6CE3m6PQyGR2-66">
          <mxGeometry width="140" height="190" as="geometry">
            <mxRectangle x="-160" y="590" width="140" height="30" as="alternateBounds" />
          </mxGeometry>
        </mxCell>
        <mxCell id="i52UNPJh6CE3m6PQyGR2-62" value="" style="verticalLabelPosition=bottom;html=1;verticalAlign=top;align=center;strokeColor=none;fillColor=#00BEF2;shape=mxgraph.azure.database;strokeWidth=0.5;" vertex="1" parent="i52UNPJh6CE3m6PQyGR2-55">
          <mxGeometry x="22" y="55" width="37.5" height="50" as="geometry" />
        </mxCell>
        <mxCell id="i52UNPJh6CE3m6PQyGR2-64" value="" style="verticalLabelPosition=bottom;html=1;verticalAlign=top;align=center;strokeColor=none;fillColor=#00BEF2;shape=mxgraph.azure.database;strokeWidth=0.5;" vertex="1" parent="i52UNPJh6CE3m6PQyGR2-55">
          <mxGeometry x="22" y="120" width="37.5" height="50" as="geometry" />
        </mxCell>
        <mxCell id="i52UNPJh6CE3m6PQyGR2-65" value="" style="verticalLabelPosition=bottom;html=1;verticalAlign=top;align=center;strokeColor=none;fillColor=#00BEF2;shape=mxgraph.azure.database;strokeWidth=0.5;" vertex="1" parent="i52UNPJh6CE3m6PQyGR2-55">
          <mxGeometry x="77" y="120" width="37.5" height="50" as="geometry" />
        </mxCell>
        <mxCell id="i52UNPJh6CE3m6PQyGR2-63" value="" style="verticalLabelPosition=bottom;html=1;verticalAlign=top;align=center;strokeColor=none;fillColor=#00BEF2;shape=mxgraph.azure.database;strokeWidth=0.5;" vertex="1" parent="i52UNPJh6CE3m6PQyGR2-66">
          <mxGeometry x="77" y="52.39473684210526" width="37.5" height="47.63157894736842" as="geometry" />
        </mxCell>
        <mxCell id="i52UNPJh6CE3m6PQyGR2-70" value="쿠폰 뷰어 / Web POS" style="swimlane;whiteSpace=wrap;html=1;strokeWidth=0.5;" vertex="1" parent="1">
          <mxGeometry x="40" y="613" width="160" height="130" as="geometry" />
        </mxCell>
        <mxCell id="i52UNPJh6CE3m6PQyGR2-42" value="active&lt;br&gt;" style="sketch=0;aspect=fixed;pointerEvents=1;shadow=0;dashed=0;html=1;strokeColor=none;labelPosition=center;verticalLabelPosition=bottom;verticalAlign=top;align=center;fillColor=#00188D;shape=mxgraph.mscae.enterprise.web_server;strokeWidth=0.5;" vertex="1" parent="i52UNPJh6CE3m6PQyGR2-70">
          <mxGeometry x="82.99999999999997" y="44" width="38" height="50" as="geometry" />
        </mxCell>
        <mxCell id="i52UNPJh6CE3m6PQyGR2-49" value="active" style="sketch=0;aspect=fixed;pointerEvents=1;shadow=0;dashed=0;html=1;strokeColor=none;labelPosition=center;verticalLabelPosition=bottom;verticalAlign=top;align=center;fillColor=#00188D;shape=mxgraph.mscae.enterprise.web_server;strokeWidth=0.5;" vertex="1" parent="i52UNPJh6CE3m6PQyGR2-70">
          <mxGeometry x="27" y="44" width="38" height="50" as="geometry" />
        </mxCell>
        <mxCell id="i52UNPJh6CE3m6PQyGR2-223" value="" style="edgeStyle=orthogonalEdgeStyle;rounded=0;orthogonalLoop=1;jettySize=auto;html=1;" edge="1" parent="1" source="i52UNPJh6CE3m6PQyGR2-73" target="i52UNPJh6CE3m6PQyGR2-57">
          <mxGeometry relative="1" as="geometry" />
        </mxCell>
        <mxCell id="i52UNPJh6CE3m6PQyGR2-73" value="Admin (발송 서버)" style="swimlane;whiteSpace=wrap;html=1;strokeWidth=0.5;" vertex="1" parent="1">
          <mxGeometry x="40" y="460" width="160" height="140" as="geometry" />
        </mxCell>
        <mxCell id="i52UNPJh6CE3m6PQyGR2-45" value="backup&lt;br&gt;" style="sketch=0;aspect=fixed;pointerEvents=1;shadow=0;dashed=0;html=1;strokeColor=none;labelPosition=center;verticalLabelPosition=bottom;verticalAlign=top;align=center;fillColor=#00188D;shape=mxgraph.mscae.enterprise.web_server;strokeWidth=0.5;" vertex="1" parent="i52UNPJh6CE3m6PQyGR2-73">
          <mxGeometry x="89" y="51" width="40.28" height="53" as="geometry" />
        </mxCell>
        <mxCell id="i52UNPJh6CE3m6PQyGR2-13" value="&lt;span style=&quot;white-space: pre;&quot;&gt;active&lt;/span&gt;" style="sketch=0;aspect=fixed;pointerEvents=1;shadow=0;dashed=0;html=1;strokeColor=none;labelPosition=center;verticalLabelPosition=bottom;verticalAlign=top;align=center;fillColor=#00188D;shape=mxgraph.mscae.enterprise.web_server;strokeWidth=0.5;" vertex="1" parent="i52UNPJh6CE3m6PQyGR2-73">
          <mxGeometry x="29" y="52.5" width="38" height="50" as="geometry" />
        </mxCell>
        <mxCell id="i52UNPJh6CE3m6PQyGR2-208" value="발송 OTP 저장/확인" style="edgeStyle=orthogonalEdgeStyle;rounded=0;orthogonalLoop=1;jettySize=auto;html=1;entryX=0;entryY=0.75;entryDx=0;entryDy=0;" edge="1" parent="1" source="i52UNPJh6CE3m6PQyGR2-75" target="i52UNPJh6CE3m6PQyGR2-86">
          <mxGeometry relative="1" as="geometry">
            <mxPoint x="200" y="170" as="sourcePoint" />
            <Array as="points">
              <mxPoint x="250" y="120" />
              <mxPoint x="250" y="118" />
            </Array>
          </mxGeometry>
        </mxCell>
        <mxCell id="i52UNPJh6CE3m6PQyGR2-75" value="OTP Server" style="swimlane;whiteSpace=wrap;html=1;strokeWidth=0.5;" vertex="1" parent="1">
          <mxGeometry x="140" y="98" width="149" height="140" as="geometry" />
        </mxCell>
        <mxCell id="i52UNPJh6CE3m6PQyGR2-76" value="active" style="sketch=0;aspect=fixed;pointerEvents=1;shadow=0;dashed=0;html=1;strokeColor=none;labelPosition=center;verticalLabelPosition=bottom;verticalAlign=top;align=center;fillColor=#00188D;shape=mxgraph.mscae.enterprise.server_generic;strokeWidth=0.5;" vertex="1" parent="i52UNPJh6CE3m6PQyGR2-75">
          <mxGeometry x="31" y="50" width="24" height="50" as="geometry" />
        </mxCell>
        <mxCell id="i52UNPJh6CE3m6PQyGR2-77" value="active&lt;br&gt;" style="sketch=0;aspect=fixed;pointerEvents=1;shadow=0;dashed=0;html=1;strokeColor=none;labelPosition=center;verticalLabelPosition=bottom;verticalAlign=top;align=center;fillColor=#00188D;shape=mxgraph.mscae.enterprise.server_generic;strokeWidth=0.5;" vertex="1" parent="i52UNPJh6CE3m6PQyGR2-75">
          <mxGeometry x="92" y="52" width="23.04" height="48" as="geometry" />
        </mxCell>
        <mxCell id="i52UNPJh6CE3m6PQyGR2-82" value="core (batch,&amp;nbsp;" style="swimlane;whiteSpace=wrap;html=1;strokeWidth=0.5;" vertex="1" parent="1">
          <mxGeometry x="500" y="580" width="150" height="135" as="geometry">
            <mxRectangle x="410" y="560" width="90" height="30" as="alternateBounds" />
          </mxGeometry>
        </mxCell>
        <mxCell id="i52UNPJh6CE3m6PQyGR2-83" value="active" style="sketch=0;aspect=fixed;pointerEvents=1;shadow=0;dashed=0;html=1;strokeColor=none;labelPosition=center;verticalLabelPosition=bottom;verticalAlign=top;align=center;fillColor=#00188D;shape=mxgraph.mscae.enterprise.server_generic;strokeWidth=0.5;" vertex="1" parent="i52UNPJh6CE3m6PQyGR2-82">
          <mxGeometry x="30" y="54" width="24" height="50" as="geometry" />
        </mxCell>
        <mxCell id="i52UNPJh6CE3m6PQyGR2-84" value="backup" style="sketch=0;aspect=fixed;pointerEvents=1;shadow=0;dashed=0;html=1;strokeColor=none;labelPosition=center;verticalLabelPosition=bottom;verticalAlign=top;align=center;fillColor=#00188D;shape=mxgraph.mscae.enterprise.server_generic;strokeWidth=0.5;" vertex="1" parent="i52UNPJh6CE3m6PQyGR2-82">
          <mxGeometry x="90" y="54" width="24" height="50" as="geometry" />
        </mxCell>
        <mxCell id="i52UNPJh6CE3m6PQyGR2-86" value="Redis" style="swimlane;whiteSpace=wrap;html=1;strokeWidth=0.5;" vertex="1" parent="1">
          <mxGeometry x="430" y="21" width="160" height="130" as="geometry">
            <mxRectangle x="460" y="350" width="140" height="30" as="alternateBounds" />
          </mxGeometry>
        </mxCell>
        <mxCell id="i52UNPJh6CE3m6PQyGR2-26" value="" style="sketch=0;aspect=fixed;html=1;points=[];align=center;image;fontSize=12;image=img/lib/mscae/Cache_Redis_Product.svg;strokeWidth=0.5;" vertex="1" parent="i52UNPJh6CE3m6PQyGR2-86">
          <mxGeometry x="94.99999999999999" y="60" width="50" height="42" as="geometry" />
        </mxCell>
        <mxCell id="i52UNPJh6CE3m6PQyGR2-32" value="" style="sketch=0;aspect=fixed;html=1;points=[];align=center;image;fontSize=12;image=img/lib/mscae/Cache_Redis_Product.svg;strokeWidth=0.5;" vertex="1" parent="i52UNPJh6CE3m6PQyGR2-86">
          <mxGeometry x="25" y="60" width="50" height="42" as="geometry" />
        </mxCell>
        <mxCell id="i52UNPJh6CE3m6PQyGR2-210" value="PIN admin" style="swimlane;whiteSpace=wrap;html=1;strokeWidth=0.5;" vertex="1" parent="1">
          <mxGeometry x="320" y="585" width="150" height="130" as="geometry" />
        </mxCell>
        <mxCell id="i52UNPJh6CE3m6PQyGR2-211" value="active&lt;br&gt;" style="sketch=0;aspect=fixed;pointerEvents=1;shadow=0;dashed=0;html=1;strokeColor=none;labelPosition=center;verticalLabelPosition=bottom;verticalAlign=top;align=center;fillColor=#00188D;shape=mxgraph.mscae.enterprise.web_server;strokeWidth=0.5;" vertex="1" parent="i52UNPJh6CE3m6PQyGR2-210">
          <mxGeometry x="82.99999999999997" y="44" width="38" height="50" as="geometry" />
        </mxCell>
        <mxCell id="i52UNPJh6CE3m6PQyGR2-212" value="active" style="sketch=0;aspect=fixed;pointerEvents=1;shadow=0;dashed=0;html=1;strokeColor=none;labelPosition=center;verticalLabelPosition=bottom;verticalAlign=top;align=center;fillColor=#00188D;shape=mxgraph.mscae.enterprise.web_server;strokeWidth=0.5;" vertex="1" parent="i52UNPJh6CE3m6PQyGR2-210">
          <mxGeometry x="27" y="44" width="38" height="50" as="geometry" />
        </mxCell>
        <mxCell id="i52UNPJh6CE3m6PQyGR2-213" value="발송 에이전트 (rabbit MQ Consumer)" style="swimlane;whiteSpace=wrap;html=1;strokeWidth=0.5;" vertex="1" parent="1">
          <mxGeometry x="630" y="330" width="200" height="130" as="geometry" />
        </mxCell>
        <mxCell id="i52UNPJh6CE3m6PQyGR2-214" value="active&lt;br&gt;" style="sketch=0;aspect=fixed;pointerEvents=1;shadow=0;dashed=0;html=1;strokeColor=none;labelPosition=center;verticalLabelPosition=bottom;verticalAlign=top;align=center;fillColor=#00188D;shape=mxgraph.mscae.enterprise.web_server;strokeWidth=0.5;" vertex="1" parent="i52UNPJh6CE3m6PQyGR2-213">
          <mxGeometry x="85.99999999999997" y="45" width="38" height="50" as="geometry" />
        </mxCell>
        <mxCell id="i52UNPJh6CE3m6PQyGR2-215" value="active" style="sketch=0;aspect=fixed;pointerEvents=1;shadow=0;dashed=0;html=1;strokeColor=none;labelPosition=center;verticalLabelPosition=bottom;verticalAlign=top;align=center;fillColor=#00188D;shape=mxgraph.mscae.enterprise.web_server;strokeWidth=0.5;" vertex="1" parent="i52UNPJh6CE3m6PQyGR2-213">
          <mxGeometry x="35" y="45" width="38" height="50" as="geometry" />
        </mxCell>
        <mxCell id="i52UNPJh6CE3m6PQyGR2-221" value="active&lt;br&gt;" style="sketch=0;aspect=fixed;pointerEvents=1;shadow=0;dashed=0;html=1;strokeColor=none;labelPosition=center;verticalLabelPosition=bottom;verticalAlign=top;align=center;fillColor=#00188D;shape=mxgraph.mscae.enterprise.web_server;strokeWidth=0.5;" vertex="1" parent="i52UNPJh6CE3m6PQyGR2-213">
          <mxGeometry x="140" y="45" width="38" height="50" as="geometry" />
        </mxCell>
        <mxCell id="i52UNPJh6CE3m6PQyGR2-217" value="" style="swimlane;startSize=0;strokeWidth=0.5;" vertex="1" parent="1">
          <mxGeometry x="424" y="284" width="156" height="170" as="geometry" />
        </mxCell>
        <mxCell id="i52UNPJh6CE3m6PQyGR2-216" value="" style="shape=image;verticalLabelPosition=bottom;verticalAlign=top;imageAspect=0;image=https://b-84b53ac7-91ec-4396-acd3-d566445548dd.mq.ap-northeast-2.amazonaws.com/img/rabbitmqlogo.svg;strokeWidth=0.5;" vertex="1" parent="i52UNPJh6CE3m6PQyGR2-217">
          <mxGeometry x="36" y="7" width="110" height="16" as="geometry" />
        </mxCell>
        <mxCell id="i52UNPJh6CE3m6PQyGR2-218" value="" style="shadow=0;dashed=0;html=1;strokeColor=none;fillColor=#4495D1;labelPosition=center;verticalLabelPosition=bottom;verticalAlign=top;align=center;outlineConnect=0;shape=mxgraph.veeam.storage_cluster;strokeWidth=0.5;" vertex="1" parent="i52UNPJh6CE3m6PQyGR2-217">
          <mxGeometry x="28" y="43.5" width="100" height="83" as="geometry" />
        </mxCell>
        <mxCell id="i52UNPJh6CE3m6PQyGR2-220" value="" style="edgeStyle=orthogonalEdgeStyle;rounded=0;orthogonalLoop=1;jettySize=auto;html=1;" edge="1" parent="1" source="i52UNPJh6CE3m6PQyGR2-218" target="i52UNPJh6CE3m6PQyGR2-213">
          <mxGeometry relative="1" as="geometry" />
        </mxCell>
        <mxCell id="i52UNPJh6CE3m6PQyGR2-224" value="" style="edgeStyle=segmentEdgeStyle;endArrow=classic;html=1;curved=0;rounded=0;endSize=8;startSize=8;sourcePerimeterSpacing=0;targetPerimeterSpacing=0;exitX=1;exitY=0.25;exitDx=0;exitDy=0;entryX=-0.004;entryY=0.149;entryDx=0;entryDy=0;entryPerimeter=0;" edge="1" parent="1" source="i52UNPJh6CE3m6PQyGR2-54" target="i52UNPJh6CE3m6PQyGR2-217">
          <mxGeometry width="100" relative="1" as="geometry">
            <mxPoint x="189" y="280" as="sourcePoint" />
            <mxPoint x="289" y="320" as="targetPoint" />
            <Array as="points">
              <mxPoint x="419" y="311" />
            </Array>
          </mxGeometry>
        </mxCell>
        <mxCell id="i52UNPJh6CE3m6PQyGR2-225" value="PIN 발송" style="edgeLabel;html=1;align=center;verticalAlign=middle;resizable=0;points=[];" vertex="1" connectable="0" parent="i52UNPJh6CE3m6PQyGR2-224">
          <mxGeometry x="-0.0741" y="-1" relative="1" as="geometry">
            <mxPoint as="offset" />
          </mxGeometry>
        </mxCell>
      </root>
    </mxGraphModel>
  </diagram>
</mxfile>
